<svg width="14" height="14" viewBox="0 0 14 14" fill="none" xmlns="http://www.w3.org/2000/svg">
<path d="M14 6.70096C14 10.4018 10.866 13.4019 7 13.4019C3.134 13.4019 0 10.4018 0 6.70096C0 3.00011 3.134 0 7 0C10.866 0 14 3.00011 14 6.70096ZM6.19031 10.2491L11.3839 5.27738C11.5602 5.10856 11.5602 4.83482 11.3839 4.666L10.7452 4.05462C10.5688 3.88577 10.2829 3.88577 10.1065 4.05462L5.87097 8.10919L3.8935 6.21619C3.71714 6.04737 3.43119 6.04737 3.2548 6.21619L2.61614 6.82758C2.43978 6.9964 2.43978 7.27014 2.61614 7.43896L5.55162 10.249C5.728 10.4179 6.01393 10.4179 6.19031 10.2491Z" fill="#088C0D"/>
</svg>
